<?xml version="1.0" encoding="UTF-8" standalone="no"?>
<!-- Created with Inkscape (http://www.inkscape.org/) -->

<svg
   xmlns:dc="http://purl.org/dc/elements/1.1/"
   xmlns:cc="http://creativecommons.org/ns#"
   xmlns:rdf="http://www.w3.org/1999/02/22-rdf-syntax-ns#"
   xmlns:svg="http://www.w3.org/2000/svg"
   xmlns="http://www.w3.org/2000/svg"
   xmlns:xlink="http://www.w3.org/1999/xlink"
   xmlns:sodipodi="http://sodipodi.sourceforge.net/DTD/sodipodi-0.dtd"
   xmlns:inkscape="http://www.inkscape.org/namespaces/inkscape"
   width="190.41463mm"
   height="137.01872mm"
   viewBox="0 0 190.41463 137.01872"
   version="1.1"
   id="svg8939"
   inkscape:export-filename="/home/issa/JOSA/Design and Branding/JOSA TechTalks/josa-techtalks-black-300dpi.png"
   inkscape:export-xdpi="300"
   inkscape:export-ydpi="300"
   inkscape:version="0.92pre1 unknown"
   sodipodi:docname="josa-techtalks-color.svg">
  <defs
     id="defs8933">
    <pattern
       patternTransform="matrix(21.96563,25.970089,-12.985051,10.982821,6560.9694,125.48013)"
       id="pattern8326"
       xlink:href="#Strips1_1-8-4"
       inkscape:collect="always" />
    <pattern
       inkscape:collect="always"
       patternUnits="userSpaceOnUse"
       width="2"
       height="1"
       patternTransform="matrix(9.225524,10.907389,-5.4536973,4.6127644,147.99413,-314.12903)"
       id="Strips1_1-8-4"
       inkscape:stockid="Stripes 1:1">
      <rect
         style="fill:black;stroke:none"
         x="0"
         y="-0.5"
         width="1"
         height="2"
         id="rect4567-6-4" />
    </pattern>
  </defs>
  <sodipodi:namedview
     id="base"
     pagecolor="#ffffff"
     bordercolor="#666666"
     borderopacity="1.0"
     inkscape:pageopacity="0.0"
     inkscape:pageshadow="2"
     inkscape:zoom="0.35"
     inkscape:cx="97.324324"
     inkscape:cy="67.65365"
     inkscape:document-units="mm"
     inkscape:current-layer="g5691"
     showgrid="false"
     fit-margin-top="0"
     fit-margin-left="0"
     fit-margin-right="0"
     fit-margin-bottom="0"
     inkscape:window-width="1280"
     inkscape:window-height="696"
     inkscape:window-x="0"
     inkscape:window-y="24"
     inkscape:window-maximized="1" />
  <metadata
     id="metadata8936">
    <rdf:RDF>
      <cc:Work
         rdf:about="">
        <dc:format>image/svg+xml</dc:format>
        <dc:type
           rdf:resource="http://purl.org/dc/dcmitype/StillImage" />
        <dc:title></dc:title>
      </cc:Work>
    </rdf:RDF>
  </metadata>
  <g
     inkscape:label="Layer 1"
     inkscape:groupmode="layer"
     id="layer1"
     transform="translate(-12.047225,-29.714632)">
    <g
       id="g5691"
       transform="matrix(0.57628793,0,0,0.57628793,248.34483,-34.469821)"
       style="stroke-width:0.45911652">
      <g
         transform="matrix(0.6757003,0,0,0.6757003,-170.50105,20.065495)"
         id="g5315-6-9"
         style="stroke-width:0.45911652">
        <g
           aria-label="JOSA"
           transform="matrix(1.9573871,0,0,1.9573871,-701.9346,-405.3327)"
           style="font-style:normal;font-weight:normal;font-size:40px;line-height:125%;font-family:'Bitstream Vera Sans';letter-spacing:0px;word-spacing:0px;fill:#707070;fill-opacity:1;stroke:none;stroke-width:0.38809863"
           id="flowRoot2816-9-9">
          <path
             d="m 181.86258,400.92844 c -0.64,0 -1.2,-0.08 -1.6,-0.2 -0.4,-0.12 -0.72,-0.16 -0.96,-0.16 -0.24,0 -0.48,0.08 -0.64,0.24 -0.16,0.16 -0.32,1.12 -0.44,2.8 1.4,0.4 2.8,0.56 4.16,0.56 1.36,0 2.6,-0.24 3.72,-0.72 3.44,-1.44 5.2,-4.6 5.2,-9.52 v -15.84 l 2.24,-0.44 c 0.4,-0.08 0.64,-0.36 0.64,-0.76 v -1.68 h -10 v 1.68 c 0,0.4 0.16,0.68 0.56,0.76 0.24,0.08 1.16,0.24 2.68,0.48 v 15.92 c 0,4.6 -1.88,6.92 -5.56,6.92 z"
             style="font-style:normal;font-variant:normal;font-weight:normal;font-stretch:normal;font-family:Aleo;-inkscape-font-specification:Aleo;fill:#707070;stroke-width:0.32806605"
             id="path9568" />
          <path
             d="m 223.95883,389.52844 c 0,-2.16 -0.32,-4.12 -1,-5.92 -0.68,-1.8 -1.64,-3.36 -2.88,-4.64 -1.24,-1.28 -2.72,-2.28 -4.48,-3 -1.76,-0.72 -3.68,-1.08 -5.76,-1.08 -2.08,0 -4,0.36 -5.76,1.08 -1.76,0.72 -3.24,1.76 -4.48,3.04 -1.24,1.28 -2.2,2.84 -2.88,4.64 -0.68,1.8 -1.04,3.76 -1.04,5.92 0,2.16 0.36,4.12 1.04,5.92 0.68,1.8 1.64,3.36 2.88,4.64 1.24,1.28 2.72,2.28 4.48,3 1.76,0.72 3.68,1.12 5.76,1.12 2.08,0 4,-0.4 5.76,-1.12 1.76,-0.72 3.2,-1.72 4.44,-3 1.24,-1.28 2.2,-2.84 2.88,-4.64 0.68,-1.8 1,-3.72 1,-5.88 z m -4,0.08 c 0,1.76 -0.24,3.32 -0.72,4.72 -0.48,1.4 -1.16,2.56 -2.04,3.52 -0.88,0.96 -1.92,1.72 -3.2,2.24 -1.28,0.52 -2.68,0.8 -4.2,0.8 -1.52,0 -2.92,-0.28 -4.2,-0.8 -1.28,-0.52 -2.32,-1.28 -3.2,-2.24 -0.88,-0.96 -1.6,-2.12 -2.08,-3.52 -0.48,-1.4 -0.72,-2.96 -0.72,-4.72 0,-1.76 0.24,-3.36 0.72,-4.76 0.48,-1.4 1.2,-2.6 2.08,-3.56 0.88,-0.96 1.92,-1.68 3.2,-2.2 1.28,-0.52 2.64,-0.76 4.16,-0.76 1.52,0 2.96,0.24 4.24,0.76 1.28,0.52 2.32,1.24 3.2,2.2 0.88,0.96 1.52,2.16 2,3.56 0.48,1.4 0.72,3 0.72,4.76 z"
             style="font-style:normal;font-variant:normal;font-weight:normal;font-stretch:normal;font-family:Aleo;-inkscape-font-specification:Aleo;fill:#707070;stroke-width:0.32806605"
             id="path9570" />
          <path
             d="m 239.99508,388.68844 c -0.96,-0.4 -2.64,-1 -5.04,-1.8 -0.84,-0.28 -1.6,-0.6 -2.24,-1 -1.44,-0.8 -2.16,-1.92 -2.16,-3.32 0,-1.28 0.48,-2.4 1.36,-3.2 0.96,-0.88 2.32,-1.28 4,-1.28 1.36,0 2.96,0.28 4.72,0.76 0.16,2.32 0.28,3.48 0.28,3.56 0.08,0.48 0.36,0.68 0.84,0.68 h 1.92 v -6.6 c -2.72,-1.12 -5.4,-1.6 -8.04,-1.6 -2.64,0 -4.76,0.8 -6.4,2.4 -1.52,1.52 -2.28,3.28 -2.28,5.44 0,2.28 0.68,4.08 2.12,5.36 0.64,0.56 1.4,1.08 2.2,1.44 0.8,0.36 2.48,0.88 5.04,1.68 0.8,0.24 1.52,0.56 2.16,0.96 1.44,0.8 2.16,2 2.16,3.52 0,1.6 -0.48,2.84 -1.52,3.8 -0.48,0.48 -1.12,0.84 -1.84,1.08 -0.72,0.24 -1.68,0.4 -2.96,0.4 -1.28,0 -2.88,-0.4 -4.88,-1.12 0,0 -0.04,-0.64 -0.12,-1.76 -0.08,-1.12 -0.16,-1.8 -0.2,-1.96 -0.08,-0.48 -0.32,-0.68 -0.8,-0.68 h -1.96 v 7.2 l 1.16,0.4 c 0.8,0.24 1.84,0.52 3.2,0.76 1.36,0.24 2.68,0.36 3.92,0.36 2.96,0 5.36,-0.84 7.12,-2.6 1.68,-1.68 2.48,-3.8 2.48,-6.44 0,-3 -1.44,-5.16 -4.32,-6.44 z"
             style="font-style:normal;font-variant:normal;font-weight:normal;font-stretch:normal;font-family:Aleo;-inkscape-font-specification:Aleo;fill:#707070;stroke-width:0.32806605"
             id="path9572" />
          <path
             d="m 274.58945,401.60844 -1.6,-0.48 -10.36,-25.92 h -3.92 l -10.4,25.92 -1.6,0.48 c -0.32,0.08 -0.52,0.28 -0.52,0.64 v 1.6 h 8.2 v -1.6 c 0,-0.36 -0.16,-0.56 -0.52,-0.64 l -1.64,-0.48 2.24,-5.76 h 12.36 l 2.24,5.76 -1.64,0.48 c -0.36,0.08 -0.56,0.28 -0.56,0.64 v 1.6 h 8.24 v -1.6 c 0,-0.36 -0.2,-0.56 -0.52,-0.64 z m -19.04,-9.04 4.28,-11 c 0.24,-0.64 0.48,-1.52 0.8,-2.72 0.28,1.08 0.56,1.96 0.88,2.68 l 4.24,11.04 z"
             style="font-style:normal;font-variant:normal;font-weight:normal;font-stretch:normal;font-family:Aleo;-inkscape-font-specification:Aleo;fill:#707070;stroke-width:0.32806605"
             id="path9574" />
        </g>
        <g
           aria-label="TechTalks;"
           transform="matrix(2.5475919,0,0,2.5475919,-807.4132,-556.30391)"
           style="font-style:normal;font-weight:normal;font-size:40px;line-height:125%;font-family:'Bitstream Vera Sans';letter-spacing:0px;word-spacing:0px;fill:#333333;fill-opacity:1;stroke:none;stroke-width:0.45911652"
           id="flowRoot2816-6-3-7">
          <path
             d="m 201.18258,374.92844 h -22.76 -0.04 -0.6 v 6.84 h 0.16 0.48 1.68 c 0.52,0 0.8,-0.28 0.92,-0.76 0.04,-0.24 0.12,-0.8 0.2,-1.68 h 5.88 v 20.56 c -0.48,0.08 -0.88,0.16 -1.16,0.2 -0.28,0.04 -0.48,0.12 -0.6,0.12 -0.12,0 -0.2,0.04 -0.24,0.04 -0.68,0.16 -1,0.56 -1,1.24 v 2.36 h 3 5.4 3.04 v -2.36 c 0,-0.68 -0.36,-1.08 -1.04,-1.24 -0.04,0 -0.12,-0.04 -0.24,-0.04 -0.12,0 -0.32,-0.08 -0.6,-0.12 -0.28,-0.04 -0.68,-0.12 -1.16,-0.2 v -20.52 h 5.88 c 0.08,0.88 0.16,1.4 0.2,1.64 0.12,0.48 0.44,0.76 0.96,0.76 h 1.64 0.48 0.16 v -6.84 z"
             style="font-style:normal;font-variant:normal;font-weight:bold;font-stretch:normal;font-family:Aleo;-inkscape-font-specification:'Aleo Bold';fill:#333333;stroke:none;stroke-width:0.45911652;stroke-opacity:1"
             id="path9577" />
          <path
             d="m 211.1382,383.00844 c -1.52,0 -2.96,0.28 -4.16,0.8 -1.2,0.52 -2.24,1.24 -3.08,2.16 -0.84,0.92 -1.52,2 -1.96,3.24 -0.44,1.24 -0.68,2.52 -0.68,3.92 0,1.8 0.24,3.4 0.76,4.76 0.52,1.36 1.24,2.52 2.16,3.44 0.92,0.92 1.96,1.64 3.2,2.12 1.24,0.48 2.52,0.68 3.96,0.68 0.72,0 1.48,-0.04 2.24,-0.16 0.76,-0.12 1.52,-0.28 2.28,-0.52 0.72,-0.24 1.44,-0.6 2.12,-1.04 0.68,-0.44 1.28,-1 1.84,-1.64 l -1.44,-1.8 c -0.12,-0.16 -0.2,-0.24 -0.36,-0.32 -0.16,-0.08 -0.36,-0.12 -0.56,-0.12 -0.32,0 -0.6,0.08 -0.92,0.28 -0.32,0.2 -0.72,0.36 -1.16,0.6 -0.44,0.24 -0.92,0.44 -1.52,0.64 -0.56,0.2 -1.24,0.28 -2.04,0.28 -1.64,0 -2.92,-0.48 -3.92,-1.48 -1,-1 -1.56,-2.52 -1.72,-4.64 h 12.68 c 0.24,0 0.4,0 0.56,-0.08 0.16,-0.08 0.28,-0.16 0.36,-0.32 0.08,-0.12 0.12,-0.32 0.16,-0.56 0.04,-0.24 0.08,-0.6 0.08,-0.96 0,-1.48 -0.24,-2.76 -0.68,-3.92 -0.44,-1.16 -1.04,-2.12 -1.84,-2.92 -0.8,-0.8 -1.72,-1.44 -2.8,-1.84 -1.08,-0.4 -2.28,-0.6 -3.56,-0.6 z m 0.08,3.52 c 0.72,0 1.36,0.16 1.92,0.4 0.56,0.24 1,0.56 1.36,1 0.36,0.44 0.64,0.92 0.8,1.48 0.16,0.56 0.28,1.16 0.28,1.8 h -9.28 c 0.24,-1.48 0.76,-2.64 1.56,-3.44 0.8,-0.8 1.92,-1.24 3.36,-1.24 z"
             style="font-style:normal;font-variant:normal;font-weight:bold;font-stretch:normal;font-family:Aleo;-inkscape-font-specification:'Aleo Bold';fill:#333333;stroke:none;stroke-width:0.45911652;stroke-opacity:1"
             id="path9579" />
          <path
             d="m 237.7632,398.96844 c -0.2,-0.32 -0.52,-0.44 -0.92,-0.44 -0.32,0 -0.56,0.08 -0.8,0.28 -0.24,0.2 -0.56,0.4 -0.88,0.64 -0.32,0.24 -0.76,0.44 -1.24,0.64 -0.48,0.2 -1.12,0.28 -1.92,0.28 -0.8,0 -1.48,-0.16 -2.12,-0.44 -0.64,-0.32 -1.16,-0.76 -1.6,-1.32 -0.44,-0.6 -0.76,-1.32 -1,-2.16 -0.24,-0.84 -0.36,-1.84 -0.36,-2.92 0,-1.04 0.12,-1.96 0.32,-2.8 0.2,-0.84 0.56,-1.56 1,-2.16 0.44,-0.6 0.96,-1 1.6,-1.32 0.64,-0.32 1.4,-0.48 2.28,-0.48 0.68,0 1.6,0.12 2.64,0.4 0.16,1.6 0.28,2.56 0.32,2.88 0.12,0.48 0.4,0.76 0.92,0.76 h 1.64 0.48 0.16 l 0.04,-6.32 c -2.64,-1 -4.8,-1.48 -6.48,-1.48 -1.6,0 -3.04,0.28 -4.28,0.8 -1.24,0.52 -2.28,1.24 -3.12,2.2 -0.84,0.96 -1.48,2.08 -1.92,3.36 -0.44,1.28 -0.64,2.64 -0.64,4.16 0,1.68 0.24,3.2 0.72,4.52 0.48,1.32 1.16,2.4 2,3.32 0.84,0.92 1.8,1.6 2.92,2.08 1.12,0.48 2.28,0.68 3.56,0.68 0.72,0 1.48,-0.04 2.2,-0.16 0.72,-0.12 1.44,-0.28 2.12,-0.52 0.68,-0.28 1.36,-0.6 2,-1.04 0.64,-0.44 1.2,-1 1.76,-1.64 z"
             style="font-style:normal;font-variant:normal;font-weight:bold;font-stretch:normal;font-family:Aleo;-inkscape-font-specification:'Aleo Bold';fill:#333333;stroke:none;stroke-width:0.45911652;stroke-opacity:1"
             id="path9581" />
          <path
             d="m 263.32258,400.24844 c -0.04,0 -0.12,0 -0.24,-0.04 -0.12,-0.04 -0.32,-0.08 -0.6,-0.12 -0.28,-0.04 -0.68,-0.12 -1.16,-0.2 v -9.12 c 0,-1.16 -0.2,-2.16 -0.48,-3.12 -0.32,-0.96 -0.76,-1.8 -1.32,-2.48 -0.6,-0.68 -1.28,-1.24 -2.16,-1.6 -0.88,-0.36 -1.84,-0.56 -2.96,-0.56 -1.28,0 -2.44,0.24 -3.4,0.72 -0.96,0.48 -1.84,1.08 -2.64,1.84 v -11.44 h -4.92 -3.04 v 2.36 c 0,0.68 0.32,1.08 1,1.24 0.04,0 0.12,0.04 0.24,0.04 0.12,0 0.32,0.08 0.6,0.12 0.28,0.04 0.72,0.12 1.2,0.2 v 21.8 c -0.48,0.08 -0.92,0.16 -1.2,0.2 -0.28,0.04 -0.48,0.12 -0.6,0.12 -0.12,0 -0.2,0.04 -0.24,0.04 -0.68,0.16 -1,0.56 -1,1.24 v 2.36 h 3.04 4.92 3.04 v -2.36 c 0,-0.68 -0.32,-1.08 -1,-1.24 -0.04,0 -0.12,0 -0.24,-0.04 -0.12,0 -0.32,-0.08 -0.6,-0.12 -0.28,-0.04 -0.72,-0.12 -1.2,-0.2 v -10.88 c 0.68,-0.68 1.36,-1.16 2.12,-1.56 0.76,-0.4 1.56,-0.6 2.4,-0.6 1.16,0 2.04,0.36 2.6,1.04 0.6,0.68 0.88,1.68 0.88,2.92 v 13.04 h 4.96 3 v -2.36 c 0,-0.68 -0.32,-1.08 -1,-1.24 z"
             style="font-style:normal;font-variant:normal;font-weight:bold;font-stretch:normal;font-family:Aleo;-inkscape-font-specification:'Aleo Bold';fill:#333333;stroke:none;stroke-width:0.45911652;stroke-opacity:1"
             id="path9583" />
          <path
             d="m 289.0732,374.92844 h -22.76 -0.04 -0.6 v 6.84 h 0.16 0.48 1.68 c 0.52,0 0.8,-0.28 0.92,-0.76 0.04,-0.24 0.12,-0.8 0.2,-1.68 h 5.88 v 20.56 c -0.48,0.08 -0.88,0.16 -1.16,0.2 -0.28,0.04 -0.48,0.12 -0.6,0.12 -0.12,0 -0.2,0.04 -0.24,0.04 -0.68,0.16 -1,0.56 -1,1.24 v 2.36 h 3 5.4 3.04 v -2.36 c 0,-0.68 -0.36,-1.08 -1.04,-1.24 -0.04,0 -0.12,-0.04 -0.24,-0.04 -0.12,0 -0.32,-0.08 -0.6,-0.12 -0.28,-0.04 -0.68,-0.12 -1.16,-0.2 v -20.52 h 5.88 c 0.08,0.88 0.16,1.4 0.2,1.64 0.12,0.48 0.44,0.76 0.96,0.76 h 1.64 0.48 0.16 v -6.84 z"
             style="font-style:normal;font-variant:normal;font-weight:bold;font-stretch:normal;font-family:Aleo;-inkscape-font-specification:'Aleo Bold';fill:#333333;stroke:none;stroke-width:0.45911652;stroke-opacity:1"
             id="path9585" />
          <path
             d="m 308.29383,400.20844 c -0.04,0 -0.2,-0.04 -0.44,-0.08 -0.24,-0.04 -0.64,-0.12 -1.08,-0.2 v -9.08 c 0,-1.16 -0.16,-2.24 -0.48,-3.2 -0.32,-0.96 -0.88,-1.8 -1.52,-2.52 -0.64,-0.68 -1.44,-1.24 -2.36,-1.64 -0.96,-0.4 -2.04,-0.6 -3.24,-0.6 -3.32,0 -6.16,1.12 -8.52,3.28 l 0.92,1.56 c 0.16,0.24 0.32,0.48 0.56,0.64 0.24,0.16 0.56,0.24 0.88,0.24 0.4,0 0.76,-0.08 1.08,-0.28 0.32,-0.2 0.68,-0.36 1.08,-0.6 0.4,-0.24 0.88,-0.44 1.4,-0.64 0.52,-0.2 1.2,-0.28 2,-0.28 1.12,0 1.96,0.32 2.52,1 0.56,0.68 0.88,1.68 0.88,3.08 v 1.2 c -2.32,0 -4.32,0.2 -5.88,0.6 -1.56,0.4 -2.8,0.92 -3.76,1.52 -0.96,0.6 -1.64,1.28 -2.04,2.04 -0.4,0.76 -0.6,1.56 -0.6,2.32 0,0.92 0.16,1.72 0.44,2.4 0.28,0.68 0.72,1.28 1.24,1.76 0.52,0.48 1.16,0.8 1.88,1.04 0.72,0.24 1.52,0.36 2.4,0.36 0.72,0 1.4,-0.08 2,-0.2 0.6,-0.12 1.16,-0.28 1.68,-0.52 0.52,-0.24 1.08,-0.52 1.56,-0.88 0.52,-0.36 1,-0.76 1.52,-1.24 l 0.44,1.44 c 0.12,0.44 0.32,0.76 0.6,0.88 0.28,0.16 0.64,0.2 1.12,0.2 h 1.68 0.52 2.52 v -2.36 c 0,-0.68 -0.32,-1.08 -1,-1.24 z m -6.32,-1.68 c -0.36,0.36 -0.72,0.68 -1.08,0.96 -0.36,0.28 -0.72,0.48 -1.08,0.68 -0.36,0.2 -0.8,0.36 -1.24,0.44 -0.44,0.08 -0.88,0.12 -1.4,0.12 -0.84,0 -1.48,-0.2 -2,-0.56 -0.52,-0.36 -0.76,-1 -0.76,-1.88 0,-0.44 0.12,-0.88 0.36,-1.24 0.24,-0.36 0.64,-0.68 1.24,-0.96 0.6,-0.28 1.4,-0.52 2.36,-0.72 0.96,-0.2 2.16,-0.28 3.6,-0.28 z"
             style="font-style:normal;font-variant:normal;font-weight:bold;font-stretch:normal;font-family:Aleo;-inkscape-font-specification:'Aleo Bold';fill:#333333;stroke:none;stroke-width:0.45911652;stroke-opacity:1"
             id="path9587" />
          <path
             d="m 320.7932,400.24844 c -0.04,0 -0.12,0 -0.24,-0.04 -0.12,-0.04 -0.32,-0.08 -0.6,-0.12 -0.28,-0.04 -0.72,-0.12 -1.2,-0.2 v -25.76 h -4.92 -3.04 v 2.36 c 0,0.68 0.32,1.08 1,1.24 0.04,0 0.12,0.04 0.24,0.04 0.12,0 0.32,0.08 0.6,0.12 0.28,0.04 0.72,0.12 1.2,0.2 v 21.8 c -0.48,0.08 -0.92,0.16 -1.2,0.2 -0.28,0.04 -0.48,0.08 -0.6,0.12 -0.12,0.04 -0.2,0.04 -0.24,0.04 -0.68,0.16 -1,0.56 -1,1.24 v 2.36 h 3.04 4.92 3.04 v -2.36 c 0,-0.68 -0.32,-1.08 -1,-1.24 z"
             style="font-style:normal;font-variant:normal;font-weight:bold;font-stretch:normal;font-family:Aleo;-inkscape-font-specification:'Aleo Bold';fill:#333333;stroke:none;stroke-width:0.45911652;stroke-opacity:1"
             id="path9589" />
          <path
             d="m 344.97508,400.24844 c -0.08,0 -0.24,-0.04 -0.4,-0.08 -0.16,-0.04 -0.44,-0.04 -0.84,-0.08 -0.4,-0.04 -0.84,-0.12 -1.28,-0.2 l -4.12,-6 c -0.2,-0.32 -0.44,-0.6 -0.64,-0.88 -0.2,-0.28 -0.44,-0.48 -0.72,-0.68 0.28,-0.16 0.52,-0.36 0.76,-0.6 0.24,-0.24 0.48,-0.52 0.72,-0.8 l 3.04,-3.68 c 0.4,-0.04 0.72,-0.12 1.08,-0.16 0.36,-0.04 0.64,-0.08 0.8,-0.12 0.16,-0.04 0.24,-0.04 0.32,-0.04 0.68,-0.16 1,-0.56 1,-1.24 v -2.36 h -4.4 c -0.12,0 -0.24,0 -0.4,0.04 v -0.04 h -4.92 v 2.36 c 0,0.68 0.32,1.08 1,1.24 0.04,0 0.16,0.04 0.36,0.08 l -2.84,3.48 c -0.2,0.24 -0.4,0.44 -0.6,0.52 -0.2,0.08 -0.48,0.12 -0.8,0.12 h -0.92 v -17 h -4.92 -3.04 v 2.36 c 0,0.68 0.32,1.08 1,1.24 0.04,0 0.12,0.04 0.24,0.04 0.12,0 0.32,0.08 0.6,0.12 0.28,0.04 0.72,0.12 1.2,0.2 v 21.8 c -0.48,0.08 -0.92,0.16 -1.2,0.2 -0.28,0.04 -0.48,0.12 -0.6,0.12 -0.12,0 -0.2,0.04 -0.24,0.04 -0.68,0.16 -1,0.56 -1,1.24 v 2.36 h 3.04 4.92 3.04 v -2.36 c 0,-0.68 -0.32,-1.08 -1,-1.24 -0.04,0 -0.12,-0.04 -0.24,-0.04 -0.12,-0.04 -0.32,-0.08 -0.6,-0.12 -0.28,-0.04 -0.72,-0.12 -1.2,-0.2 v -5.44 h 1.12 c 0.4,0 0.72,0.04 0.92,0.12 0.2,0.08 0.4,0.28 0.6,0.6 l 5.2,7.8 c 0.2,0.32 0.44,0.56 0.72,0.68 0.28,0.12 0.6,0.2 1,0.2 h 2.2 2.24 0.8 v -2.36 c 0,-0.68 -0.32,-1.08 -1,-1.24 z"
             style="font-style:normal;font-variant:normal;font-weight:bold;font-stretch:normal;font-family:Aleo;-inkscape-font-specification:'Aleo Bold';fill:#333333;stroke:none;stroke-width:0.45911652;stroke-opacity:1"
             id="path9591" />
          <path
             d="m 361.79383,395.20844 c -0.28,-0.6 -0.64,-1.08 -1.12,-1.48 -0.48,-0.44 -1,-0.76 -1.6,-1.04 -0.6,-0.28 -1.24,-0.56 -1.88,-0.76 -0.64,-0.2 -1.24,-0.4 -1.84,-0.56 -0.6,-0.16 -1.12,-0.4 -1.6,-0.64 -0.48,-0.24 -0.84,-0.44 -1.12,-0.76 -0.28,-0.32 -0.44,-0.68 -0.44,-1.12 0,-0.68 0.28,-1.24 0.84,-1.64 0.56,-0.4 1.32,-0.6 2.28,-0.6 0.92,0 1.88,0.12 2.4,0.28 0.16,1.56 0.24,2.04 0.28,2.24 0.12,0.48 0.4,0.76 0.92,0.76 h 1.64 0.48 0.16 v -5.8 h 0.04 c -2.88,-0.88 -4,-1.08 -6,-1.08 -1.28,0 -2.36,0.2 -3.32,0.52 -0.96,0.32 -1.8,0.8 -2.44,1.36 -0.64,0.56 -1.16,1.24 -1.48,2 -0.32,0.76 -0.48,1.56 -0.48,2.4 0,0.92 0.16,1.68 0.44,2.32 0.28,0.64 0.64,1.16 1.12,1.6 0.48,0.44 1.04,0.8 1.64,1.08 0.6,0.28 1.2,0.56 1.84,0.76 0.64,0.2 1.28,0.4 1.88,0.6 0.6,0.16 1.12,0.36 1.6,0.6 0.48,0.24 0.88,0.48 1.16,0.8 0.28,0.32 0.4,0.68 0.4,1.16 0,0.32 -0.04,0.64 -0.16,0.96 -0.12,0.32 -0.32,0.52 -0.6,0.76 -0.28,0.24 -0.6,0.4 -1.04,0.56 -0.4,0.12 -0.92,0.2 -1.52,0.2 -0.88,0 -2.16,0 -3.24,-0.32 -0.16,-1.6 -0.24,-2.16 -0.28,-2.36 -0.12,-0.48 -0.4,-0.76 -0.92,-0.76 h -1.64 -0.48 -0.2 v 3.8 2 c 1.48,0.56 3.96,1.12 6.52,1.12 1.32,0 2.52,-0.16 3.52,-0.52 1.04,-0.32 1.88,-0.8 2.56,-1.4 0.68,-0.6 1.2,-1.32 1.56,-2.16 0.36,-0.84 0.56,-1.76 0.56,-2.76 0,-0.84 -0.16,-1.52 -0.44,-2.12 z"
             style="font-style:normal;font-variant:normal;font-weight:bold;font-stretch:normal;font-family:Aleo;-inkscape-font-specification:'Aleo Bold';fill:#333333;stroke:none;stroke-width:0.45911652;stroke-opacity:1"
             id="path9593" />
          <path
             d="m 363.80758,400.80844 c 0,0.44 0.04,0.84 0.2,1.2 0.16,0.36 0.32,0.64 0.56,0.92 0.24,0.28 0.56,0.48 0.92,0.64 0.36,0.16 0.72,0.2 1.12,0.2 -0.08,0.4 -0.24,0.8 -0.4,1.16 -0.16,0.36 -0.36,0.64 -0.56,0.96 -0.2,0.32 -0.44,0.56 -0.64,0.8 -0.2,0.24 -0.4,0.44 -0.56,0.6 -0.12,0.12 -0.2,0.24 -0.28,0.36 -0.08,0.12 -0.12,0.24 -0.12,0.36 0,0.28 0.16,0.52 0.4,0.72 l 0.84,0.8 c 0.72,-0.56 1.32,-1.16 1.88,-1.84 0.56,-0.68 1,-1.36 1.36,-2.08 0.36,-0.72 0.68,-1.36 0.88,-2.08 0.2,-0.72 0.28,-1.4 0.28,-2.04 0,-0.44 -0.08,-0.88 -0.2,-1.28 -0.12,-0.4 -0.32,-0.76 -0.56,-1.08 -0.24,-0.32 -0.56,-0.6 -0.92,-0.76 -0.36,-0.16 -0.8,-0.24 -1.32,-0.24 -0.44,0 -0.84,0.04 -1.2,0.2 -0.36,0.16 -0.64,0.32 -0.88,0.56 -0.24,0.24 -0.44,0.56 -0.6,0.88 -0.16,0.32 -0.2,0.68 -0.2,1.04 z m -0.16,-13.92 c 0,0.44 0.08,0.8 0.24,1.16 0.16,0.36 0.36,0.68 0.64,0.96 0.28,0.28 0.6,0.48 0.96,0.64 0.36,0.16 0.76,0.2 1.2,0.2 0.4,0 0.84,-0.04 1.2,-0.2 0.36,-0.16 0.68,-0.36 0.96,-0.64 0.28,-0.28 0.48,-0.6 0.64,-0.96 0.16,-0.36 0.24,-0.72 0.24,-1.16 0,-0.4 -0.08,-0.84 -0.24,-1.2 -0.16,-0.36 -0.36,-0.68 -0.64,-0.96 -0.28,-0.28 -0.6,-0.48 -0.96,-0.64 -0.36,-0.16 -0.8,-0.24 -1.2,-0.24 -0.44,0 -0.84,0.08 -1.2,0.24 -0.36,0.16 -0.68,0.36 -0.96,0.64 -0.28,0.28 -0.48,0.6 -0.64,0.96 -0.16,0.36 -0.24,0.8 -0.24,1.2 z"
             style="font-style:normal;font-variant:normal;font-weight:bold;font-stretch:normal;font-family:Aleo;-inkscape-font-specification:'Aleo Bold';fill:#333333;stroke:none;stroke-width:0.45911652;stroke-opacity:1"
             id="path9595" />
        </g>
      </g>
      <g
         transform="matrix(-0.65210546,0,0,0.65210546,-521.7297,-33.432495)"
         id="g5325-0-2"
         style="stroke-width:0.45911652">
        <path
           style="fill:#019ec3;fill-opacity:1;stroke:none;stroke-width:0.45911652"
           d="m -632.34535,222.06249 c -11.68213,0 -21.08687,9.40474 -21.08687,21.08685 v 146.61955 c 0,11.68212 9.40474,21.08685 21.08687,21.08685 h 140.13973 l 87.796,60.2513 -24.97474,-60.2513 h 32.00369 c 11.68212,0 21.08685,-9.40473 21.08685,-21.08685 V 243.14934 c 0,-11.68211 -9.40474,-21.08685 -21.08685,-21.08685 h -234.96469 z"
           id="rect2883-1-2"
           inkscape:connector-curvature="0" />
        <path
           style="opacity:0.1;fill:url(#pattern8326);fill-opacity:1;stroke:none;stroke-width:0.45911652"
           d="m -632.34534,222.2823 c -11.68213,0 -21.08687,9.40474 -21.08687,21.08685 V 389.9887 c 0,11.68212 9.40474,21.08685 21.08687,21.08685 h 140.13973 l 87.796,60.2513 -24.97474,-60.2513 h 32.00369 c 11.68212,0 21.08685,-9.40473 21.08685,-21.08685 V 243.36915 c 0,-11.68211 -9.40474,-21.08685 -21.08685,-21.08685 h -234.96469 z"
           id="rect2883-9-7-4"
           inkscape:connector-curvature="0" />
        <path
           style="fill:#ffffff;fill-opacity:1;stroke:#ffffff;stroke-width:0.61041313;stroke-opacity:1"
           d="m -516.10017,236.53849 c -0.41211,-0.43853 -4.91067,8.93051 -9.96487,20.82012 -5.05422,11.88959 -9.27355,21.75821 -9.38275,21.91589 -0.10926,0.15768 -10.43601,-2.2113 -22.94321,-5.27352 -12.5072,-3.06224 -22.95514,-5.33008 -23.2514,-5.03381 -0.29629,0.29628 4.44748,9.75317 10.58127,21.02558 9.1609,16.83547 10.89571,20.74846 9.69094,21.8474 -0.80669,0.73583 -8.9755,7.13721 -18.18336,14.24534 -9.20785,7.10814 -16.98486,13.28849 -17.25877,13.73169 -0.4864,0.78704 3.88713,1.70055 32.77113,6.74599 l 14.10835,2.46553 -0.78759,23.8678 c -0.4301,13.13599 -0.46861,23.90202 -0.10264,23.90202 0.36586,0 8.54207,-6.92549 18.18335,-15.37537 14.39091,-12.61258 17.86677,-15.17146 19.41612,-14.27958 1.03798,0.59752 9.31426,7.24677 18.35456,14.75898 14.37234,11.94299 16.4711,13.36032 16.81361,11.26616 0.21545,-1.31727 0.0219,-11.93358 -0.41092,-23.55961 l -0.78761,-21.12828 -5.68443,5.37623 c -5.83207,5.51573 -11.29821,8.97183 -14.24534,8.97183 -2.11149,0 -2.75639,-1.32405 -7.77329,-15.64933 l -4.10924,-11.7798 3.86952,-3.7668 c 6.25627,-6.076 6.69701,-14.1231 1.09581,-19.7243 -5.3312,-5.33118 -13.55076,-5.05194 -18.32033,0.61637 -2.20415,2.6195 -2.77373,4.53158 -2.77373,8.90334 0,5.03402 0.38106,5.94397 4.21197,9.58822 l 4.24619,4.04074 -4.7941,13.52621 c -2.62549,7.44973 -5.13957,13.94019 -5.61595,14.41656 -0.47638,0.47637 -2.88274,-0.11873 -5.342,-1.33549 -10.36392,-5.12767 -18.63219,-15.22818 -22.42956,-27.42912 -8.46375,-27.19414 11.0272,-55.96477 39.14043,-57.76895 19.71189,-1.26504 38.02116,11.25269 44.37971,30.30559 3.27083,9.80074 2.572,24.25979 -1.60945,33.49023 -1.61185,3.55809 -2.75618,6.62656 -2.53403,6.84872 0.4647,0.4647 43.76421,-8.36844 44.48244,-9.07455 0.66525,-0.65403 0.50508,-0.78909 -19.34763,-15.10144 -9.79367,-7.06051 -17.80668,-13.29474 -17.80668,-13.86865 0,-0.57391 4.69102,-10.45569 10.4443,-21.95015 7.68561,-15.35507 9.93842,-20.75914 8.4924,-20.34068 -16.77925,4.85558 -43.38021,11.75909 -44.24271,11.4716 -0.61853,-0.20618 -5.32919,-9.5092 -10.47855,-20.6489 -5.14936,-11.13969 -9.68974,-20.62125 -10.10187,-21.05981 z"
           id="path3003-1-3"
           inkscape:connector-curvature="0" />
      </g>
    </g>
  </g>
</svg>
