<?xml version="1.0" encoding="UTF-8" standalone="no"?>
<!-- Created with Inkscape (http://www.inkscape.org/) -->

<svg
   xmlns:dc="http://purl.org/dc/elements/1.1/"
   xmlns:cc="http://creativecommons.org/ns#"
   xmlns:rdf="http://www.w3.org/1999/02/22-rdf-syntax-ns#"
   xmlns:svg="http://www.w3.org/2000/svg"
   xmlns="http://www.w3.org/2000/svg"
   xmlns:sodipodi="http://sodipodi.sourceforge.net/DTD/sodipodi-0.dtd"
   xmlns:inkscape="http://www.inkscape.org/namespaces/inkscape"
   width="300mm"
   height="99.809914mm"
   viewBox="0 0 300 99.809914"
   version="1.1"
   id="svg8256"
   inkscape:version="0.92pre1 unknown"
   sodipodi:docname="josa-logo.svg">
  <defs
     id="defs8250" />
  <sodipodi:namedview
     id="base"
     pagecolor="#ffffff"
     bordercolor="#666666"
     borderopacity="1.0"
     inkscape:pageopacity="0.0"
     inkscape:pageshadow="2"
     inkscape:zoom="0.35"
     inkscape:cx="494.8331"
     inkscape:cy="42.65241"
     inkscape:document-units="mm"
     inkscape:current-layer="g8714-0-1-7"
     showgrid="false"
     fit-margin-top="0"
     fit-margin-left="0"
     fit-margin-right="0"
     fit-margin-bottom="0"
     inkscape:window-width="1280"
     inkscape:window-height="696"
     inkscape:window-x="0"
     inkscape:window-y="24"
     inkscape:window-maximized="1" />
  <metadata
     id="metadata8253">
    <rdf:RDF>
      <cc:Work
         rdf:about="">
        <dc:format>image/svg+xml</dc:format>
        <dc:type
           rdf:resource="http://purl.org/dc/dcmitype/StillImage" />
        <dc:title></dc:title>
      </cc:Work>
    </rdf:RDF>
  </metadata>
  <g
     inkscape:label="Layer 1"
     inkscape:groupmode="layer"
     id="layer1"
     transform="translate(274.55554,-60.308537)">
    <g
       id="g8714-0-1-7"
       transform="matrix(2.4753669,0,0,2.4753669,-1367.7976,149.71122)"
       style="fill:#333333;stroke-width:1.78406656"
       inkscape:export-filename="/home/issa/meet1.png"
       inkscape:export-xdpi="95.96582"
       inkscape:export-ydpi="95.96582">
      <g
         aria-label="Jordan
Open Source
Association"
         transform="matrix(0.34011104,0,0,0.32070025,466.81862,-128.0071)"
         style="font-style:normal;font-weight:normal;font-size:40px;line-height:20.06000137px;font-family:sans-serif;letter-spacing:-24.53000069px;word-spacing:0px;fill:#333333;fill-opacity:1;stroke:none;stroke-width:1.78406656px;stroke-linecap:butt;stroke-linejoin:miter;stroke-opacity:1"
         id="flowRoot7393-2-2-8">
        <path
           d="m 60.286406,322.10721 c -0.64,0 -1.2,-0.08 -1.6,-0.2 -0.4,-0.12 -0.72,-0.16 -0.96,-0.16 -0.24,0 -0.48,0.08 -0.64,0.24 -0.16,0.16 -0.32,1.12 -0.44,2.8 1.4,0.4 2.8,0.56 4.16,0.56 1.36,0 2.6,-0.24 3.72,-0.72 3.44,-1.44 5.2,-4.6 5.2,-9.52 v -15.84 l 2.24,-0.44 c 0.4,-0.08 0.64,-0.36 0.64,-0.76 v -1.68 h -10 v 1.68 c 0,0.4 0.16,0.68 0.56,0.76 0.24,0.08 1.16,0.24 2.68,0.48 v 15.92 c 0,4.6 -1.88,6.92 -5.56,6.92 z"
           style="font-style:normal;font-variant:normal;font-weight:normal;font-stretch:normal;line-height:38.96693039px;font-family:Aleo;-inkscape-font-specification:Aleo;letter-spacing:0px;fill:#333333;stroke-width:1.78406656px"
           id="path8821"
           inkscape:connector-curvature="0" />
        <path
           d="m 83.782656,304.46721 c -1.48,0 -2.8,0.24 -4,0.72 -1.2,0.48 -2.24,1.2 -3.08,2.08 -0.84,0.88 -1.48,2 -1.96,3.28 -0.48,1.28 -0.64,2.72 -0.64,4.32 0,1.6 0.16,3.04 0.64,4.32 0.48,1.28 1.12,2.4 1.96,3.28 0.84,0.88 1.88,1.6 3.08,2.08 1.2,0.48 2.52,0.72 4,0.72 1.48,0 2.8,-0.24 4,-0.72 1.2,-0.48 2.24,-1.2 3.08,-2.08 0.84,-0.88 1.48,-2 1.92,-3.28 0.44,-1.28 0.68,-2.72 0.68,-4.32 0,-1.6 -0.24,-3.04 -0.68,-4.32 -0.44,-1.28 -1.08,-2.4 -1.92,-3.28 -0.84,-0.88 -1.88,-1.6 -3.08,-2.08 -1.2,-0.48 -2.52,-0.72 -4,-0.72 z m 0,18.08 c -1.04,0 -1.92,-0.24 -2.64,-0.56 -0.72,-0.32 -1.36,-0.8 -1.84,-1.44 -0.48,-0.64 -0.88,-1.44 -1.12,-2.4 -0.24,-0.96 -0.4,-2 -0.4,-3.2 0,-1.2 0.16,-2.32 0.4,-3.28 0.24,-0.96 0.64,-1.76 1.12,-2.4 0.48,-0.64 1.12,-1.2 1.84,-1.52 0.72,-0.32 1.6,-0.48 2.64,-0.48 2,0 3.52,0.64 4.48,2 0.96,1.36 1.48,3.24 1.48,5.64 0,2.4 -0.52,4.28 -1.48,5.64 -0.96,1.36 -2.48,2 -4.48,2 z"
           style="font-style:normal;font-variant:normal;font-weight:normal;font-stretch:normal;line-height:38.96693039px;font-family:Aleo;-inkscape-font-specification:Aleo;letter-spacing:0px;fill:#333333;stroke-width:1.78406656px"
           id="path8823"
           inkscape:connector-curvature="0" />
        <path
           d="m 101.91641,308.90721 -0.24,-3.16 c -0.08,-0.36 -0.16,-0.6 -0.32,-0.76 -0.16,-0.16 -0.36,-0.2 -0.76,-0.2 h -2.040004 -2.88 v 1.68 c 0,0.4 0.2,0.68 0.6,0.76 0.24,0.08 1,0.24 2.28,0.48 v 14.44 l -2.28,0.44 c -0.4,0.08 -0.6,0.36 -0.6,0.76 v 1.68 h 9.320004 v -1.68 c 0,-0.4 -0.2,-0.68 -0.6,-0.76 -1.2,-0.24 -1.96,-0.36 -2.28,-0.44 v -10 c 1.12,-2.8 2.88,-4.24 5.2,-4.24 0.72,0 1.24,0.08 1.64,0.2 0.4,0.12 0.72,0.2 0.96,0.2 0.24,0 0.44,-0.2 0.52,-0.52 l 0.44,-2.68 c -0.8,-0.48 -1.72,-0.72 -2.76,-0.72 -2.64,0 -4.68,1.52 -6.16,4.52 z"
           style="font-style:normal;font-variant:normal;font-weight:normal;font-stretch:normal;line-height:38.96693039px;font-family:Aleo;-inkscape-font-specification:Aleo;letter-spacing:0px;fill:#333333;stroke-width:1.78406656px"
           id="path8825"
           inkscape:connector-curvature="0" />
        <path
           d="m 121.26203,304.38721 c -2.68,0 -4.84,1.04 -6.44,3.04 -1.56,1.92 -2.36,4.48 -2.36,7.52 0,3.36 0.72,5.88 2.08,7.68 1.36,1.76 3.2,2.64 5.6,2.64 2.64,0 4.88,-1.12 6.8,-3.44 l 0.32,2.44 c 0.16,0.48 0.48,0.76 0.96,0.76 h 4.96 v -1.76 c 0,-0.4 -0.16,-0.64 -0.56,-0.72 -0.24,-0.08 -1.04,-0.24 -2.32,-0.48 v -26.56 h -6.8 v 1.76 c 0,0.4 0.2,0.64 0.6,0.72 0.4,0.08 1.32,0.24 2.68,0.48 v 8.32 c -1.44,-1.6 -3.32,-2.4 -5.56,-2.4 z m 0.04,18 c -0.8,0 -1.56,-0.12 -2.2,-0.4 -2,-0.88 -2.96,-3.2 -2.96,-7.04 0,-2.48 0.48,-4.4 1.52,-5.76 1.04,-1.36 2.52,-2 4.44,-2 1.92,0 3.48,0.8 4.68,2.4 v 9.76 c -1.52,2.04 -3.36,3.08 -5.44,3.08 z"
           style="font-style:normal;font-variant:normal;font-weight:normal;font-stretch:normal;line-height:38.96693039px;font-family:Aleo;-inkscape-font-specification:Aleo;letter-spacing:0px;fill:#333333;stroke-width:1.78406656px"
           id="path8827"
           inkscape:connector-curvature="0" />
        <path
           d="m 153.04016,322.54721 c -0.24,-0.08 -1.44,-0.32 -2,-0.44 v -10.12 c 0,-1.12 -0.12,-2.16 -0.44,-3.12 -0.32,-0.96 -0.76,-1.76 -1.36,-2.4 -0.6,-0.64 -1.32,-1.12 -2.2,-1.52 -0.88,-0.4 -1.92,-0.56 -3.04,-0.56 -1.6,0 -3.04,0.24 -4.32,0.8 -1.28,0.56 -2.48,1.32 -3.6,2.4 l 0.64,1.12 c 0.08,0.16 0.24,0.36 0.4,0.48 0.16,0.12 0.4,0.16 0.64,0.16 0.32,0 0.6,-0.08 0.92,-0.32 0.32,-0.24 0.72,-0.44 1.16,-0.72 0.44,-0.28 0.92,-0.48 1.52,-0.72 0.6,-0.24 1.32,-0.36 2.2,-0.36 1.32,0 2.32,0.44 3,1.24 0.68,0.8 1.04,2 1.04,3.6 v 1.56 c -2.32,0 -4.24,0.16 -5.84,0.52 -1.6,0.36 -2.88,0.88 -3.84,1.44 -0.96,0.56 -1.72,1.28 -2.16,2 -0.44,0.72 -0.64,1.52 -0.64,2.32 0,0.92 0.12,1.72 0.44,2.4 0.32,0.68 0.72,1.24 1.2,1.68 0.48,0.44 1.12,0.72 1.8,0.96 0.68,0.24 1.36,0.36 2.16,0.36 0.8,0 1.52,-0.04 2.16,-0.2 0.64,-0.16 1.2,-0.36 1.76,-0.6 0.56,-0.24 1.12,-0.56 1.6,-0.96 0.48,-0.4 1.04,-0.84 1.6,-1.32 l 0.4,1.92 c 0.08,0.32 0.16,0.56 0.4,0.64 0.24,0.08 0.52,0.16 0.84,0.16 h 1.28 0.28 2.6 v -1.72 c 0,-0.36 -0.24,-0.68 -0.6,-0.76 z m -5.52,-2.48 c -0.4,0.4 -0.8,0.8 -1.2,1.12 -0.4,0.32 -0.84,0.64 -1.32,0.88 -0.48,0.24 -0.96,0.4 -1.48,0.52 -0.52,0.12 -1.04,0.2 -1.68,0.2 -0.48,0 -0.92,-0.08 -1.32,-0.2 -0.4,-0.12 -0.72,-0.28 -1.04,-0.52 -0.32,-0.24 -0.56,-0.56 -0.72,-0.96 -0.16,-0.4 -0.28,-0.8 -0.28,-1.36 0,-0.56 0.16,-1.04 0.48,-1.52 0.32,-0.48 0.88,-0.88 1.6,-1.2 0.72,-0.32 1.68,-0.64 2.8,-0.84 1.12,-0.2 2.52,-0.28 4.16,-0.28 z"
           style="font-style:normal;font-variant:normal;font-weight:normal;font-stretch:normal;line-height:38.96693039px;font-family:Aleo;-inkscape-font-specification:Aleo;letter-spacing:0px;fill:#333333;stroke-width:1.78406656px"
           id="path8829"
           inkscape:connector-curvature="0" />
        <path
           d="m 162.30703,307.70721 -0.32,-2.2 c -0.16,-0.48 -0.48,-0.72 -0.96,-0.72 h -2.08 -2.88 v 1.68 c 0,0.4 0.16,0.68 0.56,0.76 0.24,0.08 1.04,0.24 2.32,0.48 v 14.44 l -2.32,0.44 c -0.4,0.08 -0.56,0.36 -0.56,0.76 v 1.68 h 9.32 v -1.68 c 0,-0.4 -0.2,-0.68 -0.6,-0.76 -1.44,-0.32 -2.24,-0.48 -2.32,-0.48 v -12 c 1.68,-1.88 3.52,-2.84 5.52,-2.84 2.84,0 4.24,1.68 4.24,4.88 v 12.88 h 6.48 v -1.72 c 0,-0.4 -0.24,-0.68 -0.64,-0.76 -0.24,-0.08 -1,-0.24 -2.28,-0.48 v -9.96 c 0,-2.32 -0.6,-4.2 -1.72,-5.56 -1.2,-1.44 -2.88,-2.12 -5.04,-2.12 -2.48,0 -4.72,1.08 -6.72,3.24 z"
           style="font-style:normal;font-variant:normal;font-weight:normal;font-stretch:normal;line-height:38.96693039px;font-family:Aleo;-inkscape-font-specification:Aleo;letter-spacing:0px;fill:#333333;stroke-width:1.78406656px"
           id="path8831"
           inkscape:connector-curvature="0" />
        <path
           d="m 84.726406,349.67413 c 0,-2.16 -0.32,-4.12 -1,-5.92 -0.68,-1.8 -1.64,-3.36 -2.88,-4.64 -1.24,-1.28 -2.72,-2.28 -4.48,-3 -1.76,-0.72 -3.68,-1.08 -5.76,-1.08 -2.08,0 -4,0.36 -5.76,1.08 -1.76,0.72 -3.24,1.76 -4.48,3.04 -1.24,1.28 -2.2,2.84 -2.88,4.64 -0.68,1.8 -1.04,3.76 -1.04,5.92 0,2.16 0.36,4.12 1.04,5.92 0.68,1.8 1.64,3.36 2.88,4.64 1.24,1.28 2.72,2.28 4.48,3 1.76,0.72 3.68,1.12 5.76,1.12 2.08,0 4,-0.4 5.76,-1.12 1.76,-0.72 3.2,-1.72 4.44,-3 1.24,-1.28 2.2,-2.84 2.88,-4.64 0.68,-1.8 1,-3.72 1,-5.88 z m -4,0.08 c 0,1.76 -0.24,3.32 -0.72,4.72 -0.48,1.4 -1.16,2.56 -2.04,3.52 -0.88,0.96 -1.92,1.72 -3.2,2.24 -1.28,0.52 -2.68,0.8 -4.2,0.8 -1.52,0 -2.92,-0.28 -4.2,-0.8 -1.28,-0.52 -2.32,-1.28 -3.2,-2.24 -0.88,-0.96 -1.6,-2.12 -2.08,-3.52 -0.48,-1.4 -0.72,-2.96 -0.72,-4.72 0,-1.76 0.24,-3.36 0.72,-4.76 0.48,-1.4 1.2,-2.6 2.08,-3.56 0.88,-0.96 1.92,-1.68 3.2,-2.2 1.28,-0.52 2.64,-0.76 4.16,-0.76 1.52,0 2.96,0.24 4.24,0.76 1.28,0.52 2.32,1.24 3.2,2.2 0.88,0.96 1.52,2.16 2,3.56 0.48,1.4 0.72,3 0.72,4.76 z"
           style="font-style:normal;font-variant:normal;font-weight:normal;font-stretch:normal;line-height:38.96693039px;font-family:Aleo;-inkscape-font-specification:Aleo;letter-spacing:0px;fill:#333333;stroke-width:1.78406656px"
           id="path8833"
           inkscape:connector-curvature="0" />
        <path
           d="m 92.562656,346.87413 -0.28,-2.4 c -0.16,-0.48 -0.48,-0.72 -0.96,-0.72 h -2.16 -2.88 v 1.68 c 0,0.4 0.24,0.68 0.64,0.76 0.24,0.08 0.96,0.24 2.24,0.48 v 21.28 l -2.24,0.44 c -0.4,0.08 -0.64,0.36 -0.64,0.76 v 1.72 h 9.36 v -1.72 c 0,-0.4 -0.24,-0.68 -0.64,-0.76 -0.08,0 -0.48,-0.08 -1.16,-0.24 -0.68,-0.16 -1.04,-0.24 -1.08,-0.24 v -6 c 1.44,1.6 3.36,2.36 5.84,2.36 2.480004,0 4.560004,-1.04 6.160004,-3.04 1.52,-1.92 2.32,-4.44 2.32,-7.48 0,-3.32 -0.72,-5.92 -2.08,-7.76 -1.36,-1.76 -3.2,-2.64 -5.600004,-2.64 -2.64,0 -4.88,1.2 -6.8,3.52 z m 0.2,12.24 v -9.8 c 1.52,-2.04 3.36,-3.08 5.44,-3.08 3.440004,0 5.200004,2.56 5.200004,7.52 0,2.48 -0.48,4.4 -1.52,5.76 -1.04,1.36 -2.560004,2 -4.480004,2 -1.92,0 -3.44,-0.8 -4.64,-2.4 z"
           style="font-style:normal;font-variant:normal;font-weight:normal;font-stretch:normal;line-height:38.96693039px;font-family:Aleo;-inkscape-font-specification:Aleo;letter-spacing:0px;fill:#333333;stroke-width:1.78406656px"
           id="path8835"
           inkscape:connector-curvature="0" />
        <path
           d="m 119.32391,343.43413 c -1.44,0 -2.76,0.24 -3.96,0.76 -1.2,0.52 -2.2,1.24 -3,2.12 -0.8,0.88 -1.44,2 -1.88,3.2 -0.44,1.2 -0.68,2.48 -0.68,3.92 0,1.76 0.24,3.28 0.72,4.64 0.48,1.36 1.12,2.48 2,3.4 0.88,0.92 1.88,1.64 3.08,2.12 1.2,0.48 2.48,0.72 3.88,0.72 0.72,0 1.48,-0.08 2.2,-0.2 0.72,-0.12 1.44,-0.32 2.16,-0.56 0.72,-0.24 1.32,-0.6 1.96,-1 0.64,-0.4 1.16,-0.8 1.6,-1.36 l -1,-1.32 c -0.16,-0.24 -0.36,-0.36 -0.68,-0.36 -0.24,0 -0.48,0.12 -0.8,0.32 -0.32,0.2 -0.72,0.4 -1.2,0.64 -0.48,0.24 -1.04,0.48 -1.68,0.68 -0.64,0.2 -1.44,0.28 -2.32,0.28 -0.96,0 -1.76,-0.16 -2.56,-0.48 -0.8,-0.32 -1.44,-0.8 -2,-1.44 -0.56,-0.64 -1.04,-1.36 -1.36,-2.32 -0.32,-0.96 -0.48,-2.08 -0.48,-3.36 h 13.44 c 0.32,0 0.6,-0.12 0.72,-0.28 0.12,-0.16 0.16,-0.56 0.16,-1.12 0,-1.44 -0.24,-2.72 -0.64,-3.84 -0.4,-1.12 -1.04,-2.08 -1.76,-2.84 -0.72,-0.76 -1.6,-1.32 -2.64,-1.72 -1.04,-0.4 -2.16,-0.6 -3.36,-0.6 z m 0,2.64 c 0.8,0 1.56,0.12 2.2,0.4 0.64,0.28 1.2,0.68 1.64,1.16 0.44,0.48 0.72,1.12 0.96,1.8 0.24,0.68 0.36,1.44 0.36,2.24 h -11 c 0.24,-1.76 0.88,-3.16 1.84,-4.16 0.96,-1 2.32,-1.48 4.04,-1.48 z"
           style="font-style:normal;font-variant:normal;font-weight:normal;font-stretch:normal;line-height:38.96693039px;font-family:Aleo;-inkscape-font-specification:Aleo;letter-spacing:0px;fill:#333333;stroke-width:1.78406656px"
           id="path8837"
           inkscape:connector-curvature="0" />
        <path
           d="m 136.29141,346.67413 -0.32,-2.2 c -0.16,-0.48 -0.48,-0.72 -0.96,-0.72 h -2.08 -2.88 v 1.68 c 0,0.4 0.16,0.68 0.56,0.76 0.24,0.08 1.04,0.24 2.32,0.48 v 14.44 l -2.32,0.44 c -0.4,0.08 -0.56,0.36 -0.56,0.76 v 1.68 h 9.32 v -1.68 c 0,-0.4 -0.2,-0.68 -0.6,-0.76 -1.44,-0.32 -2.24,-0.48 -2.32,-0.48 v -12 c 1.68,-1.88 3.52,-2.84 5.52,-2.84 2.84,0 4.24,1.68 4.24,4.88 v 12.88 h 6.48 v -1.72 c 0,-0.4 -0.24,-0.68 -0.64,-0.76 -0.24,-0.08 -1,-0.24 -2.28,-0.48 v -9.96 c 0,-2.32 -0.6,-4.2 -1.72,-5.56 -1.2,-1.44 -2.88,-2.12 -5.04,-2.12 -2.48,0 -4.72,1.08 -6.72,3.24 z"
           style="font-style:normal;font-variant:normal;font-weight:normal;font-stretch:normal;line-height:38.96693039px;font-family:Aleo;-inkscape-font-specification:Aleo;letter-spacing:0px;fill:#333333;stroke-width:1.78406656px"
           id="path8839"
           inkscape:connector-curvature="0" />
        <path
           d="m 177.32516,348.83413 c -0.96,-0.4 -2.64,-1 -5.04,-1.8 -0.84,-0.28 -1.6,-0.6 -2.24,-1 -1.44,-0.8 -2.16,-1.92 -2.16,-3.32 0,-1.28 0.48,-2.4 1.36,-3.2 0.96,-0.88 2.32,-1.28 4,-1.28 1.36,0 2.96,0.28 4.72,0.76 0.16,2.32 0.28,3.48 0.28,3.56 0.08,0.48 0.36,0.68 0.84,0.68 h 1.92 v -6.6 c -2.72,-1.12 -5.4,-1.6 -8.04,-1.6 -2.64,0 -4.76,0.8 -6.4,2.4 -1.52,1.52 -2.28,3.28 -2.28,5.44 0,2.28 0.68,4.08 2.12,5.36 0.64,0.56 1.4,1.08 2.2,1.44 0.8,0.36 2.48,0.88 5.04,1.68 0.8,0.24 1.52,0.56 2.16,0.96 1.44,0.8 2.16,2 2.16,3.52 0,1.6 -0.48,2.84 -1.52,3.8 -0.48,0.48 -1.12,0.84 -1.84,1.08 -0.72,0.24 -1.68,0.4 -2.96,0.4 -1.28,0 -2.88,-0.4 -4.88,-1.12 0,0 -0.04,-0.64 -0.12,-1.76 -0.08,-1.12 -0.16,-1.8 -0.2,-1.96 -0.08,-0.48 -0.32,-0.68 -0.8,-0.68 h -1.96 v 7.2 l 1.16,0.4 c 0.8,0.24 1.84,0.52 3.2,0.76 1.36,0.24 2.68,0.36 3.92,0.36 2.96,0 5.36,-0.84 7.12,-2.6 1.68,-1.68 2.48,-3.8 2.48,-6.44 0,-3 -1.44,-5.16 -4.32,-6.44 z"
           style="font-style:normal;font-variant:normal;font-weight:normal;font-stretch:normal;line-height:38.96693039px;font-family:Aleo;-inkscape-font-specification:Aleo;letter-spacing:0px;fill:#333333;stroke-width:1.78406656px"
           id="path8841"
           inkscape:connector-curvature="0" />
        <path
           d="m 193.07953,343.43413 c -1.48,0 -2.8,0.24 -4,0.72 -1.2,0.48 -2.24,1.2 -3.08,2.08 -0.84,0.88 -1.48,2 -1.96,3.28 -0.48,1.28 -0.64,2.72 -0.64,4.32 0,1.6 0.16,3.04 0.64,4.32 0.48,1.28 1.12,2.4 1.96,3.28 0.84,0.88 1.88,1.6 3.08,2.08 1.2,0.48 2.52,0.72 4,0.72 1.48,0 2.8,-0.24 4,-0.72 1.2,-0.48 2.24,-1.2 3.08,-2.08 0.84,-0.88 1.48,-2 1.92,-3.28 0.44,-1.28 0.68,-2.72 0.68,-4.32 0,-1.6 -0.24,-3.04 -0.68,-4.32 -0.44,-1.28 -1.08,-2.4 -1.92,-3.28 -0.84,-0.88 -1.88,-1.6 -3.08,-2.08 -1.2,-0.48 -2.52,-0.72 -4,-0.72 z m 0,18.08 c -1.04,0 -1.92,-0.24 -2.64,-0.56 -0.72,-0.32 -1.36,-0.8 -1.84,-1.44 -0.48,-0.64 -0.88,-1.44 -1.12,-2.4 -0.24,-0.96 -0.4,-2 -0.4,-3.2 0,-1.2 0.16,-2.32 0.4,-3.28 0.24,-0.96 0.64,-1.76 1.12,-2.4 0.48,-0.64 1.12,-1.2 1.84,-1.52 0.72,-0.32 1.6,-0.48 2.64,-0.48 2,0 3.52,0.64 4.48,2 0.96,1.36 1.48,3.24 1.48,5.64 0,2.4 -0.52,4.28 -1.48,5.64 -0.96,1.36 -2.48,2 -4.48,2 z"
           style="font-style:normal;font-variant:normal;font-weight:normal;font-stretch:normal;line-height:38.96693039px;font-family:Aleo;-inkscape-font-specification:Aleo;letter-spacing:0px;fill:#333333;stroke-width:1.78406656px"
           id="path8843"
           inkscape:connector-curvature="0" />
        <path
           d="m 214.89328,361.47413 c -1.44,0 -2.48,-0.4 -3.2,-1.24 -0.72,-0.84 -1.04,-2.08 -1.04,-3.6 v -12.88 h -6.48 v 1.68 c 0,0.4 0.24,0.68 0.64,0.76 0.24,0.08 0.96,0.24 2.24,0.48 v 10 c 0,2.4 0.64,4.2 1.76,5.56 1.2,1.4 2.88,2.12 5.04,2.12 2.56,0 4.8,-1.08 6.72,-3.24 l 0.28,2.16 c 0.16,0.48 0.48,0.76 0.96,0.76 h 5 v -1.72 c 0,-0.4 -0.2,-0.64 -0.6,-0.72 -0.24,-0.08 -1,-0.24 -2.28,-0.48 v -17.36 h -3.56 -2.88 v 1.72 c 0,0.4 0.2,0.68 0.6,0.76 1.28,0.24 2.04,0.4 2.28,0.48 v 12 c -1.64,1.84 -3.48,2.8 -5.48,2.8 z"
           style="font-style:normal;font-variant:normal;font-weight:normal;font-stretch:normal;line-height:38.96693039px;font-family:Aleo;-inkscape-font-specification:Aleo;letter-spacing:0px;fill:#333333;stroke-width:1.78406656px"
           id="path8845"
           inkscape:connector-curvature="0" />
        <path
           d="m 235.43203,347.87413 -0.24,-3.16 c -0.08,-0.36 -0.16,-0.6 -0.32,-0.76 -0.16,-0.16 -0.36,-0.2 -0.76,-0.2 h -2.04 -2.88 v 1.68 c 0,0.4 0.2,0.68 0.6,0.76 0.24,0.08 1,0.24 2.28,0.48 v 14.44 l -2.28,0.44 c -0.4,0.08 -0.6,0.36 -0.6,0.76 v 1.68 h 9.32 v -1.68 c 0,-0.4 -0.2,-0.68 -0.6,-0.76 -1.2,-0.24 -1.96,-0.36 -2.28,-0.44 v -10 c 1.12,-2.8 2.88,-4.24 5.2,-4.24 0.72,0 1.24,0.08 1.64,0.2 0.4,0.12 0.72,0.2 0.96,0.2 0.24,0 0.44,-0.2 0.52,-0.52 l 0.44,-2.68 c -0.8,-0.48 -1.72,-0.72 -2.76,-0.72 -2.64,0 -4.68,1.52 -6.16,4.52 z"
           style="font-style:normal;font-variant:normal;font-weight:normal;font-stretch:normal;line-height:38.96693039px;font-family:Aleo;-inkscape-font-specification:Aleo;letter-spacing:0px;fill:#333333;stroke-width:1.78406656px"
           id="path8847"
           inkscape:connector-curvature="0" />
        <path
           d="m 261.83078,361.15413 -0.96,-1.32 c -0.16,-0.24 -0.36,-0.32 -0.64,-0.32 -0.28,0 -0.56,0.08 -0.8,0.32 -1.28,1.12 -2.76,1.68 -4.44,1.68 -1.84,0 -3.24,-0.68 -4.28,-2 -1.04,-1.36 -1.6,-3.28 -1.6,-5.68 0,-2.4 0.48,-4.24 1.52,-5.6 0.52,-0.64 1.16,-1.16 1.88,-1.48 0.72,-0.32 1.48,-0.52 2.2,-0.52 0.72,0 1.44,0.04 2.24,0.16 0.32,0.08 0.8,0.16 1.44,0.36 0,0.04 0.04,0.44 0.12,1.32 0.08,0.88 0.12,1.36 0.16,1.52 0.08,0.4 0.28,0.56 0.68,0.56 h 1.6 v -5.28 c -2.48,-0.96 -4.48,-1.44 -6,-1.44 -3,0 -5.4,0.96 -7.12,2.92 -1.64,1.92 -2.44,4.36 -2.44,7.48 0,3.2 0.88,5.76 2.6,7.68 1.64,1.84 3.72,2.76 6.32,2.76 3.28,0 5.84,-1.04 7.52,-3.12 z"
           style="font-style:normal;font-variant:normal;font-weight:normal;font-stretch:normal;line-height:38.96693039px;font-family:Aleo;-inkscape-font-specification:Aleo;letter-spacing:0px;fill:#333333;stroke-width:1.78406656px"
           id="path8849"
           inkscape:connector-curvature="0" />
        <path
           d="m 274.01141,343.43413 c -1.44,0 -2.76,0.24 -3.96,0.76 -1.2,0.52 -2.2,1.24 -3,2.12 -0.8,0.88 -1.44,2 -1.88,3.2 -0.44,1.2 -0.68,2.48 -0.68,3.92 0,1.76 0.24,3.28 0.72,4.64 0.48,1.36 1.12,2.48 2,3.4 0.88,0.92 1.88,1.64 3.08,2.12 1.2,0.48 2.48,0.72 3.88,0.72 0.72,0 1.48,-0.08 2.2,-0.2 0.72,-0.12 1.44,-0.32 2.16,-0.56 0.72,-0.24 1.32,-0.6 1.96,-1 0.64,-0.4 1.16,-0.8 1.6,-1.36 l -1,-1.32 c -0.16,-0.24 -0.36,-0.36 -0.68,-0.36 -0.24,0 -0.48,0.12 -0.8,0.32 -0.32,0.2 -0.72,0.4 -1.2,0.64 -0.48,0.24 -1.04,0.48 -1.68,0.68 -0.64,0.2 -1.44,0.28 -2.32,0.28 -0.96,0 -1.76,-0.16 -2.56,-0.48 -0.8,-0.32 -1.44,-0.8 -2,-1.44 -0.56,-0.64 -1.04,-1.36 -1.36,-2.32 -0.32,-0.96 -0.48,-2.08 -0.48,-3.36 h 13.44 c 0.32,0 0.6,-0.12 0.72,-0.28 0.12,-0.16 0.16,-0.56 0.16,-1.12 0,-1.44 -0.24,-2.72 -0.64,-3.84 -0.4,-1.12 -1.04,-2.08 -1.76,-2.84 -0.72,-0.76 -1.6,-1.32 -2.64,-1.72 -1.04,-0.4 -2.16,-0.6 -3.36,-0.6 z m 0,2.64 c 0.8,0 1.56,0.12 2.2,0.4 0.64,0.28 1.2,0.68 1.64,1.16 0.44,0.48 0.72,1.12 0.96,1.8 0.24,0.68 0.36,1.44 0.36,2.24 h -11 c 0.24,-1.76 0.88,-3.16 1.84,-4.16 0.96,-1 2.32,-1.48 4.04,-1.48 z"
           style="font-style:normal;font-variant:normal;font-weight:normal;font-stretch:normal;line-height:38.96693039px;font-family:Aleo;-inkscape-font-specification:Aleo;letter-spacing:0px;fill:#333333;stroke-width:1.78406656px"
           id="path8851"
           inkscape:connector-curvature="0" />
        <path
           d="m 84.966406,400.72105 -1.6,-0.48 -10.36,-25.92 h -3.92 l -10.4,25.92 -1.6,0.48 c -0.32,0.08 -0.52,0.28 -0.52,0.64 v 1.6 h 8.2 v -1.6 c 0,-0.36 -0.16,-0.56 -0.52,-0.64 l -1.64,-0.48 2.24,-5.76 h 12.36 l 2.24,5.76 -1.64,0.48 c -0.36,0.08 -0.56,0.28 -0.56,0.64 v 1.6 h 8.24 v -1.6 c 0,-0.36 -0.2,-0.56 -0.52,-0.64 z m -19.04,-9.04 4.28,-11 c 0.24,-0.64 0.48,-1.52 0.8,-2.72 0.28,1.08 0.56,1.96 0.88,2.68 l 4.24,11.04 z"
           style="font-style:normal;font-variant:normal;font-weight:normal;font-stretch:normal;line-height:38.96693039px;font-family:Aleo;-inkscape-font-specification:Aleo;letter-spacing:0px;fill:#333333;stroke-width:1.78406656px"
           id="path8853"
           inkscape:connector-curvature="0" />
        <path
           d="m 95.705781,382.40105 c -2.48,0 -4.32,0.56 -5.68,1.76 -1.28,1.12 -1.92,2.44 -1.92,4.08 0,1.6 0.56,2.84 1.68,3.76 0.48,0.4 1.08,0.8 1.8,1.12 0.72,0.32 1.96,0.72 3.72,1.28 0.64,0.16 1.2,0.4 1.68,0.64 0.48,0.24 0.88,0.6 1.2,0.96 0.32,0.36 0.48,0.92 0.48,1.68 0,0.76 -0.36,1.44 -1.04,2.04 -0.76,0.64 -1.8,1 -3.12,1 -1.6,0 -3,-0.24 -4.12,-0.8 -0.16,-1.6 -0.24,-2.44 -0.24,-2.56 -0.08,-0.32 -0.28,-0.48 -0.6,-0.48 h -1.44 v 5.28 c 2.16,0.72 4.4,1.08 6.56,1.08 2.16,0 4,-0.68 5.359999,-1.88 1.32,-1.16 1.96,-2.72 1.96,-4.64 0,-1.48 -0.52,-2.64 -1.64,-3.52 -0.479999,-0.4 -1.039999,-0.8 -1.679999,-1.04 l -1.92,-0.72 c -0.64,-0.24 -1.48,-0.44 -2.48,-0.76 -1,-0.32 -1.76,-0.76 -2.32,-1.4 -0.32,-0.32 -0.48,-0.84 -0.48,-1.52 0,-0.68 0.36,-1.28 1.08,-1.84 0.72,-0.56 1.64,-0.88 2.76,-0.88 h 0.04 c 0.88,0 1.92,0.16 3.12,0.44 0.16,1.68 0.24,2.56 0.24,2.64 0.08,0.4 0.28,0.56 0.68,0.56 h 1.559999 v -3.8 -1.4 c -2.119999,-0.72 -3.879999,-1.08 -5.279999,-1.08 z"
           style="font-style:normal;font-variant:normal;font-weight:normal;font-stretch:normal;line-height:38.96693039px;font-family:Aleo;-inkscape-font-specification:Aleo;letter-spacing:0px;fill:#333333;stroke-width:1.78406656px"
           id="path8855"
           inkscape:connector-curvature="0" />
        <path
           d="m 112.11203,382.40105 c -2.48,0 -4.32,0.56 -5.68,1.76 -1.28,1.12 -1.92,2.44 -1.92,4.08 0,1.6 0.56,2.84 1.68,3.76 0.48,0.4 1.08,0.8 1.8,1.12 0.72,0.32 1.96,0.72 3.72,1.28 0.64,0.16 1.2,0.4 1.68,0.64 0.48,0.24 0.88,0.6 1.2,0.96 0.32,0.36 0.48,0.92 0.48,1.68 0,0.76 -0.36,1.44 -1.04,2.04 -0.76,0.64 -1.8,1 -3.12,1 -1.6,0 -3,-0.24 -4.12,-0.8 -0.16,-1.6 -0.24,-2.44 -0.24,-2.56 -0.08,-0.32 -0.28,-0.48 -0.6,-0.48 h -1.44 v 5.28 c 2.16,0.72 4.4,1.08 6.56,1.08 2.16,0 4,-0.68 5.36,-1.88 1.32,-1.16 1.96,-2.72 1.96,-4.64 0,-1.48 -0.52,-2.64 -1.64,-3.52 -0.48,-0.4 -1.04,-0.8 -1.68,-1.04 l -1.92,-0.72 c -0.64,-0.24 -1.48,-0.44 -2.48,-0.76 -1,-0.32 -1.76,-0.76 -2.32,-1.4 -0.32,-0.32 -0.48,-0.84 -0.48,-1.52 0,-0.68 0.36,-1.28 1.08,-1.84 0.72,-0.56 1.64,-0.88 2.76,-0.88 h 0.04 c 0.88,0 1.92,0.16 3.12,0.44 0.16,1.68 0.24,2.56 0.24,2.64 0.08,0.4 0.28,0.56 0.68,0.56 h 1.56 v -3.8 -1.4 c -2.12,-0.72 -3.88,-1.08 -5.28,-1.08 z"
           style="font-style:normal;font-variant:normal;font-weight:normal;font-stretch:normal;line-height:38.96693039px;font-family:Aleo;-inkscape-font-specification:Aleo;letter-spacing:0px;fill:#333333;stroke-width:1.78406656px"
           id="path8857"
           inkscape:connector-curvature="0" />
        <path
           d="m 130.81391,382.40105 c -1.48,0 -2.8,0.24 -4,0.72 -1.2,0.48 -2.24,1.2 -3.08,2.08 -0.84,0.88 -1.48,2 -1.96,3.28 -0.48,1.28 -0.64,2.72 -0.64,4.32 0,1.6 0.16,3.04 0.64,4.32 0.48,1.28 1.12,2.4 1.96,3.28 0.84,0.88 1.88,1.6 3.08,2.08 1.2,0.48 2.52,0.72 4,0.72 1.48,0 2.8,-0.24 4,-0.72 1.2,-0.48 2.24,-1.2 3.08,-2.08 0.84,-0.88 1.48,-2 1.92,-3.28 0.44,-1.28 0.68,-2.72 0.68,-4.32 0,-1.6 -0.24,-3.04 -0.68,-4.32 -0.44,-1.28 -1.08,-2.4 -1.92,-3.28 -0.84,-0.88 -1.88,-1.6 -3.08,-2.08 -1.2,-0.48 -2.52,-0.72 -4,-0.72 z m 0,18.08 c -1.04,0 -1.92,-0.24 -2.64,-0.56 -0.72,-0.32 -1.36,-0.8 -1.84,-1.44 -0.48,-0.64 -0.88,-1.44 -1.12,-2.4 -0.24,-0.96 -0.4,-2 -0.4,-3.2 0,-1.2 0.16,-2.32 0.4,-3.28 0.24,-0.96 0.64,-1.76 1.12,-2.4 0.48,-0.64 1.12,-1.2 1.84,-1.52 0.72,-0.32 1.6,-0.48 2.64,-0.48 2,0 3.52,0.64 4.48,2 0.96,1.36 1.48,3.24 1.48,5.64 0,2.4 -0.52,4.28 -1.48,5.64 -0.96,1.36 -2.48,2 -4.48,2 z"
           style="font-style:normal;font-variant:normal;font-weight:normal;font-stretch:normal;line-height:38.96693039px;font-family:Aleo;-inkscape-font-specification:Aleo;letter-spacing:0px;fill:#333333;stroke-width:1.78406656px"
           id="path8859"
           inkscape:connector-curvature="0" />
        <path
           d="m 159.64328,400.12105 -0.96,-1.32 c -0.16,-0.24 -0.36,-0.32 -0.64,-0.32 -0.28,0 -0.56,0.08 -0.8,0.32 -1.28,1.12 -2.76,1.68 -4.44,1.68 -1.84,0 -3.24,-0.68 -4.28,-2 -1.04,-1.36 -1.6,-3.28 -1.6,-5.68 0,-2.4 0.48,-4.24 1.52,-5.6 0.52,-0.64 1.16,-1.16 1.88,-1.48 0.72,-0.32 1.48,-0.52 2.2,-0.52 0.72,0 1.44,0.04 2.24,0.16 0.32,0.08 0.8,0.16 1.44,0.36 0,0.04 0.04,0.44 0.12,1.32 0.08,0.88 0.12,1.36 0.16,1.52 0.08,0.4 0.28,0.56 0.68,0.56 h 1.6 v -5.28 c -2.48,-0.96 -4.48,-1.44 -6,-1.44 -3,0 -5.4,0.96 -7.12,2.92 -1.64,1.92 -2.44,4.36 -2.44,7.48 0,3.2 0.88,5.76 2.6,7.68 1.64,1.84 3.72,2.76 6.32,2.76 3.28,0 5.84,-1.04 7.52,-3.12 z"
           style="font-style:normal;font-variant:normal;font-weight:normal;font-stretch:normal;line-height:38.96693039px;font-family:Aleo;-inkscape-font-specification:Aleo;letter-spacing:0px;fill:#333333;stroke-width:1.78406656px"
           id="path8861"
           inkscape:connector-curvature="0" />
        <path
           d="m 164.64828,378.12105 c 0.24,0.24 0.48,0.4 0.8,0.56 0.32,0.16 0.64,0.2 0.96,0.2 0.32,0 0.64,-0.04 0.96,-0.2 0.32,-0.16 0.56,-0.32 0.8,-0.56 0.24,-0.24 0.4,-0.48 0.56,-0.8 0.16,-0.32 0.24,-0.64 0.24,-0.96 0,-0.32 -0.08,-0.68 -0.24,-1 -0.16,-0.32 -0.32,-0.6 -0.56,-0.84 -0.24,-0.24 -0.48,-0.4 -0.8,-0.56 -0.32,-0.16 -0.64,-0.2 -0.96,-0.2 -0.32,0 -0.64,0.04 -0.96,0.2 -0.32,0.16 -0.56,0.32 -0.8,0.56 -0.24,0.24 -0.4,0.52 -0.56,0.84 -0.16,0.32 -0.2,0.68 -0.2,1 0,0.32 0.04,0.64 0.2,0.96 0.16,0.32 0.32,0.56 0.56,0.8 z m 5.8,22.36 c -0.36,-0.08 -2.28,-0.44 -2.28,-0.44 v -17.32 h -6.44 v 1.68 c 0,0.36 0.24,0.68 0.6,0.76 0.36,0.08 2.32,0.44 2.32,0.44 v 14.44 c 0,0 -1.96,0.36 -2.32,0.44 -0.36,0.08 -0.6,0.4 -0.6,0.76 v 1.72 h 9.32 v -1.72 c 0,-0.36 -0.24,-0.68 -0.6,-0.76 z"
           style="font-style:normal;font-variant:normal;font-weight:normal;font-stretch:normal;line-height:38.96693039px;font-family:Aleo;-inkscape-font-specification:Aleo;letter-spacing:0px;fill:#333333;stroke-width:1.78406656px"
           id="path8863"
           inkscape:connector-curvature="0" />
        <path
           d="m 190.93078,400.48105 c -0.24,-0.08 -1.44,-0.32 -2,-0.44 v -10.12 c 0,-1.12 -0.12,-2.16 -0.44,-3.12 -0.32,-0.96 -0.76,-1.76 -1.36,-2.4 -0.6,-0.64 -1.32,-1.12 -2.2,-1.52 -0.88,-0.4 -1.92,-0.56 -3.04,-0.56 -1.6,0 -3.04,0.24 -4.32,0.8 -1.28,0.56 -2.48,1.32 -3.6,2.4 l 0.64,1.12 c 0.08,0.16 0.24,0.36 0.4,0.48 0.16,0.12 0.4,0.16 0.64,0.16 0.32,0 0.6,-0.08 0.92,-0.32 0.32,-0.24 0.72,-0.44 1.16,-0.72 0.44,-0.28 0.92,-0.48 1.52,-0.72 0.6,-0.24 1.32,-0.36 2.2,-0.36 1.32,0 2.32,0.44 3,1.24 0.68,0.8 1.04,2 1.04,3.6 v 1.56 c -2.32,0 -4.24,0.16 -5.84,0.52 -1.6,0.36 -2.88,0.88 -3.84,1.44 -0.96,0.56 -1.72,1.28 -2.16,2 -0.44,0.72 -0.64,1.52 -0.64,2.32 0,0.92 0.12,1.72 0.44,2.4 0.32,0.68 0.72,1.24 1.2,1.68 0.48,0.44 1.12,0.72 1.8,0.96 0.68,0.24 1.36,0.36 2.16,0.36 0.8,0 1.52,-0.04 2.16,-0.2 0.64,-0.16 1.2,-0.36 1.76,-0.6 0.56,-0.24 1.12,-0.56 1.6,-0.96 0.48,-0.4 1.04,-0.84 1.6,-1.32 l 0.4,1.92 c 0.08,0.32 0.16,0.56 0.4,0.64 0.24,0.08 0.52,0.16 0.84,0.16 h 1.28 0.28 2.6 v -1.72 c 0,-0.36 -0.24,-0.68 -0.6,-0.76 z m -5.52,-2.48 c -0.4,0.4 -0.8,0.8 -1.2,1.12 -0.4,0.32 -0.84,0.64 -1.32,0.88 -0.48,0.24 -0.96,0.4 -1.48,0.52 -0.52,0.12 -1.04,0.2 -1.68,0.2 -0.48,0 -0.92,-0.08 -1.32,-0.2 -0.4,-0.12 -0.72,-0.28 -1.04,-0.52 -0.32,-0.24 -0.56,-0.56 -0.72,-0.96 -0.16,-0.4 -0.28,-0.8 -0.28,-1.36 0,-0.56 0.16,-1.04 0.48,-1.52 0.32,-0.48 0.88,-0.88 1.6,-1.2 0.72,-0.32 1.68,-0.64 2.8,-0.84 1.12,-0.2 2.52,-0.28 4.16,-0.28 z"
           style="font-style:normal;font-variant:normal;font-weight:normal;font-stretch:normal;line-height:38.96693039px;font-family:Aleo;-inkscape-font-specification:Aleo;letter-spacing:0px;fill:#333333;stroke-width:1.78406656px"
           id="path8865"
           inkscape:connector-curvature="0" />
        <path
           d="m 200.10578,403.28105 c 0.92,0 1.8,-0.16 2.68,-0.48 0.88,-0.32 1.6,-0.8 2.24,-1.36 l -1.04,-1.68 c -0.16,-0.24 -0.32,-0.32 -0.48,-0.32 -0.08,0 -0.24,0.08 -0.4,0.16 -0.16,0.08 -0.28,0.2 -0.48,0.32 -0.2,0.12 -0.44,0.24 -0.72,0.32 -0.28,0.08 -0.6,0.16 -1,0.16 -0.64,0 -1.24,-0.2 -1.64,-0.6 -0.4,-0.4 -0.6,-1.04 -0.6,-1.92 v -12.16 h 5.8 v -2.6 h -5.8 v -6.96 h -1.8 c -0.24,0 -0.4,0.04 -0.56,0.16 -0.16,0.12 -0.24,0.28 -0.24,0.48 l -0.8,6.28 -3.32,0.44 v 1.4 c 0,0.24 0.04,0.48 0.2,0.6 0.16,0.12 0.32,0.16 0.56,0.16 h 2.44 v 12.4 c 0,1.68 0.4,2.96 1.28,3.84 0.88,0.88 2.08,1.36 3.68,1.36 z"
           style="font-style:normal;font-variant:normal;font-weight:normal;font-stretch:normal;line-height:38.96693039px;font-family:Aleo;-inkscape-font-specification:Aleo;letter-spacing:0px;fill:#333333;stroke-width:1.78406656px"
           id="path8867"
           inkscape:connector-curvature="0" />
        <path
           d="m 210.11703,378.12105 c 0.24,0.24 0.48,0.4 0.8,0.56 0.32,0.16 0.64,0.2 0.96,0.2 0.32,0 0.64,-0.04 0.96,-0.2 0.32,-0.16 0.56,-0.32 0.8,-0.56 0.24,-0.24 0.4,-0.48 0.56,-0.8 0.16,-0.32 0.24,-0.64 0.24,-0.96 0,-0.32 -0.08,-0.68 -0.24,-1 -0.16,-0.32 -0.32,-0.6 -0.56,-0.84 -0.24,-0.24 -0.48,-0.4 -0.8,-0.56 -0.32,-0.16 -0.64,-0.2 -0.96,-0.2 -0.32,0 -0.64,0.04 -0.96,0.2 -0.32,0.16 -0.56,0.32 -0.8,0.56 -0.24,0.24 -0.4,0.52 -0.56,0.84 -0.16,0.32 -0.2,0.68 -0.2,1 0,0.32 0.04,0.64 0.2,0.96 0.16,0.32 0.32,0.56 0.56,0.8 z m 5.8,22.36 c -0.36,-0.08 -2.28,-0.44 -2.28,-0.44 v -17.32 h -6.44 v 1.68 c 0,0.36 0.24,0.68 0.6,0.76 0.36,0.08 2.32,0.44 2.32,0.44 v 14.44 c 0,0 -1.96,0.36 -2.32,0.44 -0.36,0.08 -0.6,0.4 -0.6,0.76 v 1.72 h 9.32 v -1.72 c 0,-0.36 -0.24,-0.68 -0.6,-0.76 z"
           style="font-style:normal;font-variant:normal;font-weight:normal;font-stretch:normal;line-height:38.96693039px;font-family:Aleo;-inkscape-font-specification:Aleo;letter-spacing:0px;fill:#333333;stroke-width:1.78406656px"
           id="path8869"
           inkscape:connector-curvature="0" />
        <path
           d="m 228.07953,382.40105 c -1.48,0 -2.8,0.24 -4,0.72 -1.2,0.48 -2.24,1.2 -3.08,2.08 -0.84,0.88 -1.48,2 -1.96,3.28 -0.48,1.28 -0.64,2.72 -0.64,4.32 0,1.6 0.16,3.04 0.64,4.32 0.48,1.28 1.12,2.4 1.96,3.28 0.84,0.88 1.88,1.6 3.08,2.08 1.2,0.48 2.52,0.72 4,0.72 1.48,0 2.8,-0.24 4,-0.72 1.2,-0.48 2.24,-1.2 3.08,-2.08 0.84,-0.88 1.48,-2 1.92,-3.28 0.44,-1.28 0.68,-2.72 0.68,-4.32 0,-1.6 -0.24,-3.04 -0.68,-4.32 -0.44,-1.28 -1.08,-2.4 -1.92,-3.28 -0.84,-0.88 -1.88,-1.6 -3.08,-2.08 -1.2,-0.48 -2.52,-0.72 -4,-0.72 z m 0,18.08 c -1.04,0 -1.92,-0.24 -2.64,-0.56 -0.72,-0.32 -1.36,-0.8 -1.84,-1.44 -0.48,-0.64 -0.88,-1.44 -1.12,-2.4 -0.24,-0.96 -0.4,-2 -0.4,-3.2 0,-1.2 0.16,-2.32 0.4,-3.28 0.24,-0.96 0.64,-1.76 1.12,-2.4 0.48,-0.64 1.12,-1.2 1.84,-1.52 0.72,-0.32 1.6,-0.48 2.64,-0.48 2,0 3.52,0.64 4.48,2 0.96,1.36 1.48,3.24 1.48,5.64 0,2.4 -0.52,4.28 -1.48,5.64 -0.96,1.36 -2.48,2 -4.48,2 z"
           style="font-style:normal;font-variant:normal;font-weight:normal;font-stretch:normal;line-height:38.96693039px;font-family:Aleo;-inkscape-font-specification:Aleo;letter-spacing:0px;fill:#333333;stroke-width:1.78406656px"
           id="path8871"
           inkscape:connector-curvature="0" />
        <path
           d="m 246.21328,385.64105 -0.32,-2.2 c -0.16,-0.48 -0.48,-0.72 -0.96,-0.72 h -2.08 -2.88 v 1.68 c 0,0.4 0.16,0.68 0.56,0.76 0.24,0.08 1.04,0.24 2.32,0.48 v 14.44 l -2.32,0.44 c -0.4,0.08 -0.56,0.36 -0.56,0.76 v 1.68 h 9.32 v -1.68 c 0,-0.4 -0.2,-0.68 -0.6,-0.76 -1.44,-0.32 -2.24,-0.48 -2.32,-0.48 v -12 c 1.68,-1.88 3.52,-2.84 5.52,-2.84 2.84,0 4.24,1.68 4.24,4.88 v 12.88 h 6.48 v -1.72 c 0,-0.4 -0.24,-0.68 -0.64,-0.76 -0.24,-0.08 -1,-0.24 -2.28,-0.48 v -9.96 c 0,-2.32 -0.6,-4.2 -1.72,-5.56 -1.2,-1.44 -2.88,-2.12 -5.04,-2.12 -2.48,0 -4.72,1.08 -6.72,3.24 z"
           style="font-style:normal;font-variant:normal;font-weight:normal;font-stretch:normal;line-height:38.96693039px;font-family:Aleo;-inkscape-font-specification:Aleo;letter-spacing:0px;fill:#333333;stroke-width:1.78406656px"
           id="path8873"
           inkscape:connector-curvature="0" />
      </g>
      <path
         inkscape:connector-curvature="0"
         id="path7518-2-7-1"
         style="fill:#019ec3;fill-opacity:1;fill-rule:nonzero;stroke:none;stroke-width:1.83627355"
         d="m 453.26763,-1.1992218 c 0.0514,-2.97046 0.0998,-5.69283 0.0998,-6.05001 l 0.003,-0.64327 -5.77728,-1.02618 c -3.18041,-0.56609 -5.85445,-1.05293 -5.94192,-1.08073 -0.0884,-0.0291 1.97414,-1.6807702 4.58743,-3.6713802 2.61329,-1.99368 4.75209,-3.67445 4.7562,-3.73931 0,-0.0639 -1.27936,-2.47228 -2.84281,-5.34702 -1.56448,-2.87062 -2.83871,-5.23485 -2.82637,-5.24307 0.009,-0.0117 2.64521,0.6361 5.85754,1.43584 l 5.838,1.45946 0.19343,-0.37053 c 0.10387,-0.20073 1.16514,-2.68122 2.3601,-5.50346 1.19397,-2.82636 2.20264,-5.13806 2.23867,-5.13806 0.0403,0.003 1.17028,2.41153 2.50523,5.35525 1.33909,2.94265 2.50111,5.3789 2.5814,5.41494 0.0802,0.033 2.72136,-0.65874 5.86988,-1.53977 3.14747,-0.87591 5.72476,-1.57581 5.72476,-1.55111 0,0.0204 -1.20526,2.42803 -2.67713,5.34703 -1.47184,2.91488 -2.67812,5.33467 -2.67812,5.37894 0,0.0411 2.18718,1.64887 4.86122,3.57049 2.674,1.92164 4.84061,3.50981 4.81695,3.53449 -0.0444,0.0443 -11.36206,2.4002402 -11.52363,2.4002402 -0.0484,0 0.15755,-0.44671 0.45491,-0.99323 1.06119,-1.9422102 1.41935,-3.3770002 1.41524,-5.6568402 0,-1.3226 -0.0566,-1.80532 -0.30568,-2.74606 -0.59493,-2.23968 -1.6602,-4.02854 -3.28851,-5.52818 -2.13159,-1.96176 -4.52358,-2.91074 -7.31806,-2.90663 -3.14747,0.003 -5.70518,1.08896 -7.91605,3.35643 -1.24643,1.27937 -2.07088,2.6699 -2.65343,4.46699 -1.74152,5.39539 0.94074,11.4711402 6.07469,13.7663902 0.48686,0.21706 0.75548,0.28212 0.88004,0.20072 0.2337,-0.14004 2.71415,-6.9186902 2.63388,-7.1842202 -0.0318,-0.10504 -0.22553,-0.26142 -0.422,-0.34171 -0.53934,-0.21299 -1.50375,-1.30717 -1.68491,-1.89798 -0.67519,-2.19541 0.8368,-4.38258 3.03118,-4.3898 1.21042,-0.003 2.38481,0.77915 2.92722,1.94943 0.33349,0.71533 0.30982,1.97825 -0.0554,2.73784 -0.28621,0.59901 -1.05806,1.38743 -1.60462,1.62828 -0.16046,0.0729 -0.32216,0.21707 -0.35408,0.32217 -0.0843,0.25732 2.40437,7.0360402 2.63389,7.1760202 0.13684,0.0855 0.40966,0.0117 0.96444,-0.24507 1.41524,-0.65565 2.73475,-1.6602 3.8484,-2.94269 l 0.51463,-0.5949 v 0.4786 c 0.003,0.26055 0.11642,2.72962 0.25325,5.48392 0.13596,2.75739001 0.23253,5.22246 0.21299,5.47568 l -0.0362,0.46211 -4.56376,-3.78355999 c -2.50931,-2.07806001 -4.60797,-3.77840001 -4.66355,-3.77840001 -0.0773,0 -5.68152,4.85604 -8.7611,7.59079 l -0.34171,0.30466 z" />
    </g>
  </g>
</svg>
